<svg width="150" height="150" viewBox="0 0 36 31" fill="none" xmlns="http://www.w3.org/2000/svg">
  <!-- Ear -->
  <path d="M10 5C8 1 4 1 3 3C3 3 9 6 10 5Z" fill="#FFFFFF"/>
  <!-- Ear -->
  <path d="M26 5C28 1 32 1 33 3C33 3 27 6 26 5Z" fill="#FFFFFF"/>
  <!-- Head -->
  <path d="M18 0C10 1 5 8 4 10C4 10 15 16 18 16C21 16 32 10 32 10C31 8 26 1 18 0Z" fill="#FFFFFF"/>
  <!-- Eye -->
  <circle cx="12" cy="9" r="2" fill="#0EA5EA"/>
  <!-- Eye -->
  <circle cx="24" cy="9" r="2" fill="#0EA5EA"/>
  <!-- Snow -->
  <circle cx="18" cy="12" r="2" fill="#FFFFFF"/>
  <circle cx="20" cy="14" r="2" fill="#FFFFFF"/>
  <circle cx="15" cy="14" r="2" fill="#FFFFFF"/>
  <circle cx="14" cy="16" r="2" fill="#FFFFFF"/>
  <circle cx="22" cy="16" r="2" fill="#FFFFFF"/>
  <!-- Text -->
  <text x="10" y="28" fill="#FFFFFF" font-family="Arial" font-size="3">ROHITH</text>
</svg>